<svg xmlns="http://www.w3.org/2000/svg" viewBox="0 0 64 64" width="64" height="64" role="img" aria-label="用户头像">
  <defs>
    <linearGradient id="a3bg" x1="0" y1="0" x2="1" y2="1">
      <stop offset="0%" stop-color="#f3e8ff"/><stop offset="100%" stop-color="#e9d5ff"/>
    </linearGradient>
  </defs>
  <rect width="64" height="64" fill="url(#a3bg)"/>
  <path d="M8 64c0-12 11-19 24-19s24 7 24 19z" fill="#7c3aed"/>
  <circle cx="32" cy="27" r="13" fill="#f7d3b0"/>
  <path d="M19 26a13 13 0 0 1 26 0c0-10-4-15-13-15s-13 5-13 15z" fill="#6b3f1d"/>
  <path d="M19 26c-3 6-3 12 0 16-2-6-1-11 0-16zM45 26c3 6 3 12 0 16 2-6 1-11 0-16z" fill="#6b3f1d"/>
  <circle cx="27" cy="27" r="1.6" fill="#4a2c14"/><circle cx="37" cy="27" r="1.6" fill="#4a2c14"/>
  <path d="M28 33q4 3 8 0" stroke="#cf9c72" stroke-width="1.6" fill="none" stroke-linecap="round"/>
</svg>
