<svg xmlns="http://www.w3.org/2000/svg" viewBox="0 0 64 64" width="64" height="64" role="img" aria-label="用户头像">
  <defs>
    <linearGradient id="a2bg" x1="0" y1="0" x2="1" y2="1">
      <stop offset="0%" stop-color="#dcfce7"/><stop offset="100%" stop-color="#bbf7d0"/>
    </linearGradient>
  </defs>
  <rect width="64" height="64" fill="url(#a2bg)"/>
  <path d="M8 64c0-12 11-19 24-19s24 7 24 19z" fill="#0f766e"/>
  <circle cx="32" cy="27" r="13" fill="#e8b48c"/>
  <path d="M17 34c-2-12 3-22 15-22s17 10 15 22c-2-6-4-9-6-9 2-6-2-9-9-9s-11 3-9 9c-2 0-4 3-6 9z" fill="#141414"/>
  <circle cx="27" cy="27" r="1.6" fill="#141414"/><circle cx="37" cy="27" r="1.6" fill="#141414"/>
  <path d="M28 33q4 3 8 0" stroke="#bd8763" stroke-width="1.6" fill="none" stroke-linecap="round"/>
</svg>
